<svg width="619" height="563" viewBox="0 0 619 563" fill="none" xmlns="http://www.w3.org/2000/svg">
<g clip-path="url(#clip0_600_7848)">
<path d="M350.703 543.069C350.188 543.093 349.678 542.958 349.242 542.682C348.807 542.406 348.466 542.003 348.267 541.528C348.068 541.052 348.02 540.527 348.13 540.024C348.24 539.52 348.502 539.062 348.88 538.712L349.053 538.027C349.03 537.973 349.007 537.918 348.984 537.863C348.465 536.638 347.596 535.593 346.484 534.86C345.373 534.128 344.07 533.739 342.739 533.744C341.408 533.749 340.108 534.147 339.002 534.888C337.896 535.629 337.034 536.68 336.525 537.909C334.487 542.815 331.892 547.728 331.253 552.915C330.972 555.207 331.091 557.531 331.604 559.783C326.818 549.348 324.332 538.007 324.316 526.528C324.315 523.648 324.475 520.769 324.796 517.907C325.061 515.56 325.428 513.23 325.898 510.916C328.464 498.364 333.972 486.6 341.97 476.588C345.841 474.477 348.972 471.231 350.94 467.287C351.653 465.869 352.157 464.356 352.437 462.794C352 462.851 350.79 456.204 351.119 455.797C350.511 454.874 349.421 454.415 348.757 453.514C345.451 449.035 340.897 449.817 338.52 455.904C333.441 458.466 333.392 462.714 336.508 466.801C338.491 469.4 338.763 472.918 340.503 475.701C340.324 475.93 340.137 476.152 339.959 476.381C336.687 480.585 333.835 485.1 331.445 489.86C332.026 484.527 331.332 479.133 329.421 474.12C327.483 469.448 323.851 465.514 320.653 461.475C316.811 456.624 308.933 458.741 308.257 464.891C308.25 464.95 308.244 465.01 308.237 465.069C308.712 465.337 309.177 465.621 309.632 465.922C310.204 466.304 310.647 466.849 310.903 467.487C311.159 468.124 311.217 468.824 311.068 469.495C310.919 470.166 310.571 470.776 310.07 471.246C309.568 471.715 308.936 472.023 308.257 472.127L308.187 472.138C308.357 473.849 308.656 475.545 309.082 477.211C304.979 493.069 313.837 498.845 326.485 499.104C326.765 499.247 327.037 499.39 327.316 499.526C324.914 506.328 323.408 513.414 322.834 520.604C322.51 524.846 322.529 529.107 322.892 533.346L322.87 533.196C321.954 528.482 319.438 524.229 315.747 521.155C310.265 516.654 302.521 514.997 296.607 511.38C295.979 510.977 295.248 510.761 294.501 510.76C293.754 510.758 293.022 510.969 292.392 511.37C291.761 511.77 291.259 512.342 290.943 513.018C290.627 513.695 290.511 514.447 290.609 515.187C290.617 515.24 290.625 515.293 290.634 515.345C291.515 515.704 292.373 516.117 293.204 516.583C293.679 516.851 294.144 517.135 294.599 517.436C295.17 517.817 295.613 518.363 295.869 519C296.125 519.638 296.183 520.338 296.034 521.009C295.886 521.679 295.538 522.29 295.036 522.759C294.534 523.229 293.902 523.536 293.223 523.641L293.153 523.652C293.103 523.659 293.06 523.666 293.01 523.673C294.517 527.268 296.631 530.576 299.26 533.454C301.826 547.297 312.844 548.611 324.631 544.579H324.638C325.932 550.196 327.805 555.663 330.23 560.892H350.203C350.275 560.67 350.339 560.441 350.403 560.219C348.555 560.336 346.699 560.225 344.877 559.89C346.359 558.073 347.84 556.241 349.322 554.424C349.355 554.39 349.387 554.354 349.415 554.317C350.167 553.387 350.926 552.464 351.678 551.534L351.678 551.533C351.718 548.681 351.39 545.837 350.703 543.069Z" fill="#F2F2F2"/>
<path d="M321.111 227.438C298.606 227.438 276.607 220.769 257.895 208.273C239.182 195.777 224.598 178.017 215.986 157.238C207.374 136.458 205.12 113.593 209.511 91.5336C213.901 69.4743 224.738 49.2115 240.652 33.3076C256.565 17.4037 276.84 6.57301 298.912 2.18513C320.985 -2.20274 343.863 0.0492709 364.655 8.6564C385.447 17.2635 403.218 31.8392 415.721 50.5402C428.224 69.2412 434.897 91.2276 434.897 113.719C434.863 143.869 422.864 172.774 401.532 194.093C380.2 215.412 351.278 227.404 321.111 227.438ZM321.111 1.7909C298.96 1.7909 277.307 8.35538 258.89 20.6542C240.473 32.953 226.118 50.4338 217.641 70.886C209.165 91.3382 206.947 113.843 211.268 135.555C215.59 157.267 226.256 177.211 241.919 192.864C257.581 208.518 277.537 219.178 299.262 223.497C320.987 227.815 343.505 225.599 363.969 217.127C384.433 208.656 401.925 194.31 414.231 175.903C426.537 157.497 433.105 135.856 433.105 113.719C433.072 84.0442 421.261 55.5943 400.266 34.611C379.27 13.6276 350.803 1.82444 321.111 1.7909Z" fill="#F2F2F2"/>
<path d="M333.595 154.909H309.405C308.216 154.909 307.077 154.437 306.237 153.597C305.397 152.758 304.925 151.619 304.925 150.431C304.925 149.244 305.397 148.105 306.237 147.266C307.077 146.426 308.216 145.954 309.405 145.954H333.595C334.783 145.954 335.923 146.426 336.763 147.266C337.603 148.105 338.075 149.244 338.075 150.431C338.075 151.619 337.603 152.758 336.763 153.597C335.923 154.437 334.783 154.909 333.595 154.909Z" fill="#E6E6E6"/>
<path d="M339.153 284.85H303.847C302.113 284.85 300.45 284.162 299.224 282.936C297.998 281.711 297.309 280.049 297.309 278.316C297.309 276.583 297.998 274.921 299.224 273.696C300.45 272.47 302.113 271.782 303.847 271.782H339.153C340.887 271.782 342.55 272.47 343.776 273.696C345.002 274.921 345.691 276.583 345.691 278.316C345.691 280.049 345.002 281.711 343.776 282.936C342.55 284.162 340.887 284.85 339.153 284.85Z" fill="#001246"/>
<path d="M439.508 257.462H203.492C201.389 257.46 199.373 256.624 197.886 255.137C196.398 253.651 195.562 251.636 195.56 249.535V179.213C195.562 177.111 196.398 175.096 197.886 173.61C199.373 172.124 201.389 171.288 203.492 171.286H439.508C441.611 171.288 443.627 172.124 445.114 173.61C446.601 175.096 447.438 177.111 447.44 179.213V249.535C447.438 251.636 446.601 253.651 445.114 255.137C443.627 256.624 441.611 257.46 439.508 257.462Z" fill="#E6E6E6"/>
<path d="M416.576 252.115H208.843C206.74 252.113 204.724 251.277 203.237 249.79C201.75 248.304 200.914 246.289 200.911 244.188V184.564C200.914 182.463 201.75 180.448 203.237 178.961C204.724 177.475 206.74 176.639 208.843 176.637H434.158C436.261 176.639 438.277 177.475 439.764 178.961C441.251 180.448 442.088 182.463 442.09 184.564V226.616C442.083 233.377 439.392 239.858 434.609 244.638C429.826 249.418 423.341 252.107 416.576 252.115Z" fill="white"/>
<path d="M344.921 197.842H250.06C249.517 197.842 248.997 197.626 248.613 197.243C248.23 196.86 248.014 196.34 248.014 195.797C248.014 195.255 248.23 194.735 248.613 194.352C248.997 193.968 249.517 193.753 250.06 193.753H344.921C345.463 193.753 345.983 193.968 346.367 194.352C346.751 194.735 346.966 195.255 346.966 195.797C346.966 196.34 346.751 196.86 346.367 197.243C345.983 197.626 345.463 197.842 344.921 197.842Z" fill="#001246"/>
<path d="M392.941 206.204H250.06C249.517 206.204 248.997 205.988 248.613 205.605C248.23 205.222 248.014 204.702 248.014 204.159C248.014 203.617 248.23 203.097 248.613 202.714C248.997 202.33 249.517 202.115 250.06 202.115H392.941C393.483 202.115 394.004 202.33 394.387 202.714C394.771 203.097 394.986 203.617 394.986 204.159C394.986 204.702 394.771 205.222 394.387 205.605C394.004 205.988 393.483 206.204 392.941 206.204Z" fill="#E6E6E6"/>
<path d="M392.941 215.802H250.06C249.791 215.803 249.524 215.75 249.276 215.648C249.027 215.545 248.801 215.395 248.61 215.205C248.42 215.015 248.269 214.789 248.166 214.541C248.063 214.293 248.01 214.027 248.01 213.758C248.01 213.489 248.063 213.223 248.166 212.974C248.269 212.726 248.42 212.5 248.61 212.311C248.801 212.121 249.027 211.97 249.276 211.868C249.524 211.765 249.791 211.713 250.06 211.713H392.941C393.482 211.714 394.002 211.93 394.384 212.314C394.767 212.697 394.982 213.216 394.982 213.758C394.982 214.299 394.767 214.819 394.384 215.202C394.002 215.585 393.482 215.801 392.941 215.802Z" fill="#E6E6E6"/>
<path d="M392.941 225.401H250.06C249.791 225.401 249.524 225.349 249.276 225.246C249.027 225.144 248.801 224.993 248.61 224.803C248.42 224.613 248.269 224.388 248.166 224.139C248.063 223.891 248.01 223.625 248.01 223.356C248.01 223.087 248.063 222.821 248.166 222.573C248.269 222.324 248.42 222.099 248.61 221.909C248.801 221.719 249.027 221.569 249.276 221.466C249.524 221.364 249.791 221.311 250.06 221.312H392.941C393.482 221.313 394.002 221.529 394.384 221.912C394.767 222.295 394.982 222.815 394.982 223.356C394.982 223.898 394.767 224.417 394.384 224.8C394.002 225.184 393.482 225.399 392.941 225.401Z" fill="#E6E6E6"/>
<path d="M392.941 234.999H250.06C249.791 235 249.524 234.947 249.276 234.845C249.027 234.742 248.801 234.592 248.61 234.402C248.42 234.212 248.269 233.986 248.166 233.738C248.063 233.49 248.01 233.223 248.01 232.955C248.01 232.686 248.063 232.419 248.166 232.171C248.269 231.923 248.42 231.697 248.61 231.507C248.801 231.317 249.027 231.167 249.276 231.064C249.524 230.962 249.791 230.909 250.06 230.91H392.941C393.482 230.911 394.002 231.127 394.384 231.51C394.767 231.894 394.982 232.413 394.982 232.955C394.982 233.496 394.767 234.015 394.384 234.399C394.002 234.782 393.482 234.998 392.941 234.999Z" fill="#E6E6E6"/>
<path d="M518.479 551.435L508.892 551.435L504.33 514.474L518.482 514.475L518.479 551.435Z" fill="#A0616A"/>
<path d="M518.817 561.432L489.333 561.431V561.058C489.333 558.016 490.542 555.099 492.694 552.948C494.846 550.797 497.765 549.589 500.809 549.589L506.195 545.505L516.244 549.589L518.818 549.59L518.817 561.432Z" fill="#2F2E41"/>
<path d="M596.866 539.165L588.275 543.419L567.769 512.324L580.45 506.046L596.866 539.165Z" fill="#A0616A"/>
<path d="M601.61 547.973L575.19 561.054L575.024 560.72C573.673 557.995 573.461 554.844 574.434 551.962C575.407 549.08 577.485 546.702 580.212 545.351L583.225 539.302L594.043 538.503L596.349 537.362L601.61 547.973Z" fill="#2F2E41"/>
<path d="M490.076 352.766C490.076 352.766 479.161 367.972 487.039 394.242C494.917 420.513 490.495 443.999 492.706 448.709C494.917 453.419 499.369 457.891 495.691 461.462C492.012 465.032 490.075 467.936 492.981 468.904C495.886 469.871 505.57 537.619 505.57 537.619L522.032 538.586C522.032 538.586 527.996 507.116 521.625 481.719C521.625 481.719 523.024 463.282 520.107 457.866C517.19 452.451 517.762 457.336 517.961 450.538C518.07 445.622 518.787 440.738 520.096 435.998C521.064 432.127 521.625 393.109 521.625 393.109L537.651 444.886C538.294 446.67 538.535 448.574 538.358 450.462C537.961 453.129 537.958 457.115 538.444 458.509C538.93 459.904 539.471 460.197 539.2 462.954C538.93 465.711 571.184 523.824 571.184 523.824L587.209 513.079L571.42 462.129C569.852 460.393 568.547 458.436 567.547 456.322C565.61 452.451 565.534 452.237 566.541 449.441C567.547 446.644 567.547 441.195 567.547 439.564C567.547 437.933 568.553 363.898 555.945 353.009C543.337 342.12 490.076 352.766 490.076 352.766Z" fill="#2F2E41"/>
<path d="M549.277 234.98L545.995 225.647L537.036 216.693L520.51 214.721L509.751 221.79L499.787 231.607L485.071 353.693C485.071 353.693 554.581 380.477 563.689 357.999L549.277 234.98Z" fill="#CCCCCC"/>
<path d="M554.911 234.98L545.257 225.331C545.257 225.331 540.645 287.001 542.609 291.338C544.574 295.675 546.888 294.568 544.387 296.913C541.886 299.257 539.198 296.93 541.886 301.228C543.47 303.637 544.247 306.487 544.105 309.367C544.105 309.367 558.013 396.858 566.077 396.858C574.141 396.858 579.189 394.499 578.905 392.097C578.62 389.695 573.864 383.714 575.346 382.227C576.828 380.741 580.482 381.863 576.864 379.064C573.245 376.264 571.453 377.159 572.349 373.577C573.245 369.996 566.395 323.564 566.395 323.564L565.727 246.008L554.911 234.98Z" fill="#3F3D56"/>
<path d="M509.751 221.79L497.247 223.558L482.383 229.229C482.383 229.229 489.172 305.772 487.754 308.335C486.337 310.898 483.818 309.297 485.973 311.888C488.129 314.479 490.068 313.33 487.754 315.696C485.441 318.061 481.546 315.065 483.942 319.249C486.337 323.434 474.795 381.047 477.903 384.138C481.01 387.228 489.017 385.305 489.021 383.023C488.776 380.563 487.846 378.222 486.337 376.264C485.903 375.768 485.665 375.131 485.665 374.473C485.665 373.814 485.903 373.178 486.337 372.682C487.606 371.462 488.478 369.887 488.839 368.164C489.025 366.414 490.393 364.264 491.053 362.653C491.712 361.042 508.326 251.986 508.326 251.986L509.751 221.79Z" fill="#3F3D56"/>
<path d="M456.4 282.059L462.039 279.116C454.998 272.769 437.528 262.385 437.528 262.385L407.418 242.097C406.978 241.06 406.271 240.158 405.37 239.48C404.469 238.803 403.406 238.374 402.287 238.238C401.168 238.102 400.032 238.263 398.995 238.705C397.958 239.147 397.056 239.854 396.379 240.755C395.702 241.656 395.275 242.719 395.14 243.838C395.005 244.957 395.167 246.091 395.611 247.127C396.054 248.163 396.763 249.064 397.665 249.74C398.567 250.415 399.632 250.841 400.752 250.974L434.495 281.187L456.4 282.059Z" fill="#A0616A"/>
<path d="M497.614 259.673L497.675 234.929L483.921 228.355L449.232 265.046L446.544 263.255H440.273L425.042 281.164C425.042 281.164 433.154 285.968 437.161 284.014C441.169 282.059 440.792 284.868 440.792 284.868C441.387 285.615 442.215 286.14 443.145 286.359C444.075 286.577 445.051 286.476 445.917 286.073C449.232 284.745 455.504 288.327 455.504 288.327L497.614 259.673Z" fill="#3F3D56"/>
<path d="M530.579 209.037C541.656 209.037 550.636 200.062 550.636 188.992C550.636 177.921 541.656 168.946 530.579 168.946C519.502 168.946 510.522 177.921 510.522 188.992C510.522 200.062 519.502 209.037 530.579 209.037Z" fill="#A0616A"/>
<path d="M554.792 194.081C552.898 197.784 550.357 201.119 547.288 203.928C546.407 204.929 545.283 205.686 544.024 206.128C543.391 206.334 542.706 206.312 542.088 206.065C541.47 205.819 540.958 205.363 540.641 204.778L540.27 204.271C541.344 203.942 542.358 203.441 543.272 202.787C543.726 202.457 544.094 202.024 544.347 201.523C544.6 201.023 544.729 200.469 544.724 199.909C544.692 199.348 544.443 198.823 544.031 198.442C543.618 198.061 543.074 197.855 542.513 197.866C541.26 198.015 540.14 199.477 539.017 198.914C538.111 198.453 538.241 197.134 538.501 196.138C539.896 190.94 539.313 182.883 537.304 182.601C535.306 182.195 533.403 181.416 531.694 180.306C529.982 179.195 528.071 178.427 526.066 178.044C525.921 178.025 525.775 178.015 525.619 178.002C525.562 176.931 525.375 175.87 525.063 174.843C524.845 175.927 524.512 176.985 524.07 177.999C522.333 178.236 520.579 178.324 518.827 178.264C516.96 178.048 511.594 182.396 511.554 181.797C511.497 180.726 511.31 179.665 510.998 178.638C510.78 179.722 510.447 180.78 510.005 181.794C509.985 181.836 509.976 181.871 509.955 181.912C509.385 180.522 509.222 178.967 509.236 180.128C508.038 172.742 510.414 168.294 516.479 163.914C517.691 162.948 519.128 162.305 520.656 162.046C521.419 161.924 522.201 162 522.926 162.268C523.651 162.536 524.295 162.986 524.795 163.574C527.124 162.343 529.74 161.756 532.372 161.875C535.004 161.995 537.556 162.815 539.764 164.252C544.127 167.173 547.569 169.117 546.989 174.341C551.124 174.739 554.618 178.058 555.924 181.992C557.22 185.933 556.547 190.33 554.792 194.081Z" fill="#2F2E41"/>
<path d="M580.393 298.531L566.004 296.471C561.137 304.604 559.408 326.252 559.408 326.252L545.325 359.703C544.392 360.336 543.643 361.204 543.153 362.218C542.662 363.233 542.448 364.359 542.531 365.482C542.614 366.606 542.992 367.688 543.626 368.619C544.261 369.551 545.13 370.298 546.145 370.787C547.161 371.277 548.288 371.49 549.412 371.405C550.536 371.321 551.618 370.942 552.55 370.306C553.481 369.671 554.228 368.802 554.716 367.786C555.204 366.77 555.416 365.644 555.33 364.521L578.452 325.584L580.393 298.531Z" fill="#A0616A"/>
<path d="M547.261 248.664L553.359 240.271L565.722 246.013L576.006 285.656C576.006 285.656 583.515 290.54 581.913 293.985C580.311 297.43 579.459 300.21 581.115 302.184C582.771 304.158 587.594 304.303 584.002 307.522C580.409 310.741 583.484 319.151 583.484 319.151L580.042 326.83L558.539 325.935L547.261 248.664Z" fill="#3F3D56"/>
<path d="M49.9389 371.615C51.2961 370.551 52.1843 368.999 52.4144 367.291C52.6445 365.582 52.1983 363.851 51.1708 362.466C50.9575 362.187 50.7215 361.927 50.4653 361.688L59.6471 340.498L50.5279 332.059L41.0901 362.445C40.1794 363.584 39.6714 364.992 39.6456 366.45C39.6197 367.907 40.0773 369.332 40.9471 370.502C41.4484 371.164 42.0751 371.72 42.7914 372.139C43.5077 372.558 44.2995 372.832 45.1218 372.945C45.944 373.058 46.7805 373.008 47.5836 372.799C48.3866 372.589 49.1404 372.223 49.8019 371.722C49.8481 371.687 49.8937 371.651 49.9389 371.615Z" fill="#FFB6B6"/>
<path d="M103.282 234.154C103.282 234.154 96.4849 221.241 80.718 235.186C64.9511 249.132 46.3195 318.935 46.6813 321.559C47.0431 324.183 50.8969 323.145 46.0225 326.923C41.148 330.702 38.4529 327.307 41.148 330.702C43.8431 334.096 49.8702 337.693 44.5337 338.198C39.1972 338.702 58.7602 347.114 58.7602 347.114C58.7602 347.114 61.8372 346.376 62.7813 339.28C63.3115 335.295 61.5148 333.032 64.6776 332.367C67.8405 331.703 64.8759 324.496 65.3312 323.362C65.7864 322.228 91.041 272.698 91.041 272.698L103.282 234.154Z" fill="#001246"/>
<path d="M134.321 549.528L145.737 549.527L151.169 505.513L134.318 505.514L134.321 549.528Z" fill="#FFB6B6"/>
<path d="M133.918 561.432L169.029 561.431V560.987C169.028 557.365 167.588 553.891 165.026 551.33C162.463 548.768 158.987 547.329 155.363 547.329H155.362L148.948 542.466L136.982 547.33L133.917 547.33L133.918 561.432Z" fill="#2F2E41"/>
<path d="M54.2922 528.539L63.6317 535.101L93.4078 502.22L79.6218 492.533L54.2922 528.539Z" fill="#FFB6B6"/>
<path d="M47.1121 538.045L75.8338 558.227L76.0892 557.864C78.1737 554.901 78.9952 551.232 78.3729 547.663C77.7506 544.095 75.7355 540.92 72.7708 538.836L70.3226 531.171L57.7351 528.27L55.2279 526.509L47.1121 538.045Z" fill="#2F2E41"/>
<path d="M88.8294 330.56L87.8807 332.586C81.6448 345.9 80.0503 360.784 82.4737 375.284C82.6539 375.85 82.6195 376.462 82.377 377.004C80.8741 378.766 83.232 386.42 84.5836 390.694L85.8018 398.252C85.8018 398.252 83.7818 405.271 86.8501 404.755C89.9184 404.239 85.3494 411.726 88.2761 413.602L95.8684 460.704L64.1931 512.879L75.9247 529.879L122.851 469.497L123.438 414.978L130.476 458.945L131.063 528.121L152.406 525.853L160.225 458.787L152.766 366.037L141.035 325.822L88.8294 330.56Z" fill="#2F2E41"/>
<path d="M103.493 209.807L120.759 210.629L129.016 224.884C132.677 225.982 136.045 227.887 138.871 230.46C141.697 233.033 143.909 236.207 145.343 239.748L150.719 253.023L144.603 329.777C144.603 329.777 143.377 334.42 145.635 333.742C147.892 333.064 146.972 338.882 146.972 338.882L155.292 370.863L79.6494 364.289L83.8496 330.406C83.8496 330.406 78.01 330.594 82.116 326.49C86.222 322.387 88.2189 323.694 84.2745 318.843C80.3301 313.991 79.7435 310.474 79.7435 310.474L77.9838 286.438L75.0827 252.612C74.6224 247.245 75.5041 241.847 77.6488 236.905C79.7934 231.962 83.1336 227.63 87.369 224.298L103.493 209.807Z" fill="#001246"/>
<path d="M112.447 205.849C124.54 205.849 134.343 196.051 134.343 183.965C134.343 171.879 124.54 162.081 112.447 162.081C100.354 162.081 90.55 171.879 90.55 183.965C90.55 196.051 100.354 205.849 112.447 205.849Z" fill="#FFB6B6"/>
<path d="M103.986 204.055C110.269 203.849 110.84 202.19 117.124 201.984C119.125 201.918 121.485 201.644 122.453 199.893C122.734 199.237 122.86 198.524 122.819 197.811C122.778 197.098 122.573 196.405 122.218 195.785C121.501 194.554 120.855 193.283 120.283 191.979C119.938 190.956 119.847 189.865 120.019 188.799C120.191 187.734 120.62 186.726 121.268 185.863C121.917 185.001 122.767 184.309 123.743 183.847C124.719 183.386 125.793 183.17 126.872 183.216C128.784 183.299 130.58 184.197 132.487 184.362C135.102 184.587 140.885 175.957 139.681 173.626C138.509 171.357 136.15 169.645 135.78 167.119C135.537 165.466 136.22 163.825 136.313 162.157C136.451 159.684 130.18 165.259 131.329 163.065C134.146 157.682 107.597 151.009 103.226 157.752C101.593 160.272 98.6817 160.1 96.0869 161.613C94.3862 162.605 90.0919 166.027 89.1156 168.16C88.2185 170.336 87.7946 172.678 87.872 175.03C87.8327 185.971 89.5005 196.034 98.3304 202.501" fill="#2F2E41"/>
<path d="M166.148 370.675C164.857 369.531 164.063 367.93 163.935 366.21C163.807 364.491 164.356 362.789 165.465 361.468C165.694 361.203 165.945 360.957 166.215 360.734L158.315 339.034L167.923 331.154L175.528 362.049C176.37 363.24 176.792 364.676 176.731 366.132C176.67 367.589 176.128 368.984 175.19 370.1C174.65 370.73 173.991 371.248 173.251 371.624C172.511 371.999 171.704 372.225 170.877 372.289C170.049 372.353 169.217 372.254 168.428 371.996C167.639 371.739 166.909 371.329 166.278 370.789C166.234 370.752 166.191 370.714 166.148 370.675Z" fill="#FFB6B6"/>
<path d="M121.111 230.276C121.111 230.276 128.667 217.792 143.573 232.653C158.478 247.514 172.907 318.304 172.39 320.902C171.872 323.5 168.087 322.234 172.727 326.296C177.367 330.359 180.26 327.131 177.367 330.359C174.474 333.586 168.243 336.817 173.54 337.639C178.836 338.461 158.806 345.691 158.806 345.691C158.806 345.691 155.778 344.77 155.26 337.631C154.969 333.621 156.897 331.469 153.78 330.618C150.662 329.766 154.052 322.748 153.665 321.589C153.278 320.43 131.027 269.482 131.027 269.482L121.111 230.276Z" fill="#001246"/>
<path d="M338.985 111.275C338.986 114.818 337.935 118.282 335.967 121.228C333.998 124.174 331.199 126.471 327.924 127.827C324.65 129.184 321.046 129.54 317.569 128.849C314.092 128.159 310.898 126.454 308.391 123.949C305.883 121.445 304.175 118.253 303.483 114.779C302.791 111.304 303.145 107.702 304.5 104.429C305.856 101.155 308.153 98.357 311.1 96.388C314.047 94.4189 317.512 93.3675 321.057 93.3666C323.411 93.3634 325.743 93.8245 327.919 94.7232C330.095 95.622 332.072 96.9409 333.738 98.6043C335.403 100.268 336.724 102.243 337.624 104.417C338.524 106.592 338.987 108.922 338.985 111.275Z" fill="#001246"/>
<path d="M321.457 113.871C324.92 113.871 327.728 111.065 327.728 107.603C327.728 104.141 324.92 101.335 321.457 101.335C317.993 101.335 315.185 104.141 315.185 107.603C315.185 111.065 317.993 113.871 321.457 113.871Z" fill="white"/>
<path d="M328.18 116.11H314.74C313.909 116.111 313.112 116.442 312.524 117.029C311.936 117.617 311.605 118.413 311.604 119.244C311.796 121.929 312.215 124.592 312.859 127.205C315.554 128.593 318.558 129.274 321.589 129.185C324.619 129.096 327.578 128.239 330.187 126.694C330.762 124.245 331.139 121.754 331.316 119.244C331.315 118.413 330.984 117.617 330.396 117.029C329.808 116.442 329.011 116.111 328.18 116.11Z" fill="white"/>
<path d="M4.719e-06 561.934C-0.000412858 562.075 0.0268866 562.213 0.0803229 562.343C0.133759 562.472 0.212273 562.59 0.311366 562.689C0.41046 562.788 0.528175 562.866 0.657726 562.92C0.787276 562.973 0.926113 563 1.06625 563H641.934C642.217 563 642.488 562.888 642.688 562.688C642.888 562.488 643 562.217 643 561.934C643 561.652 642.888 561.381 642.688 561.181C642.488 560.981 642.217 560.869 641.934 560.869H1.06625C0.926114 560.868 0.787274 560.896 0.657726 560.949C0.528177 561.003 0.410472 561.081 0.31138 561.18C0.212287 561.279 0.133761 561.397 0.0803229 561.526C0.0268849 561.656 -0.000408102 561.794 4.719e-06 561.934Z" fill="#CCCCCC"/>
</g>
<defs>
<clipPath id="clip0_600_7848">
<rect width="643" height="563" fill="white"/>
</clipPath>
</defs>
</svg>
